<svg width="512" height="512" viewBox="0 0 512 512" fill="none" xmlns="http://www.w3.org/2000/svg">
<path d="M469.333 215.467C471.466 204.8 462.933 192 452.266 192L330.666 174.933L275.199 63.9998C273.066 59.7332 270.933 57.5998 266.666 55.4665C255.999 49.0665 243.199 53.3332 236.799 63.9998L183.466 174.933L61.866 192C55.466 192 51.1993 194.133 49.066 198.4C40.5327 206.933 40.5327 219.733 49.066 228.266L136.533 313.6L115.199 435.2C115.199 439.467 115.199 443.733 117.333 448C123.733 458.667 136.533 462.933 147.199 456.533L255.999 398.933L364.799 456.533C366.933 458.667 371.199 458.667 375.466 458.667C377.599 458.667 377.599 458.667 379.733 458.667C390.399 456.533 398.933 445.866 396.799 433.066L375.466 311.466L462.933 226.133C467.199 224 469.333 219.733 469.333 215.467Z" fill="#F0CD2F"/>
</svg>
