<svg width="26" height="25" viewBox="0 0 26 25" fill="none" xmlns="http://www.w3.org/2000/svg">
<path d="M25.66 13.1095C25.6936 13.0618 25.7237 13.0117 25.75 12.9595L25.85 12.7595L25.91 12.5595C25.9326 12.5048 25.9494 12.4478 25.96 12.3895C26.0112 12.1321 26.0112 11.867 25.96 11.6095C25.9494 11.5513 25.9326 11.4943 25.91 11.4395L25.85 11.2395L25.75 11.0395C25.7237 10.9874 25.6936 10.9373 25.66 10.8895C25.5885 10.7772 25.5046 10.6733 25.41 10.5795L15.41 0.579547C15.0274 0.251894 14.5352 0.0806821 14.0319 0.100124C13.5285 0.119567 13.0511 0.328232 12.6949 0.684421C12.3387 1.04061 12.13 1.51809 12.1106 2.02144C12.0911 2.52479 12.2623 3.01694 12.59 3.39955L19.17 9.99955H2C1.46957 9.99955 0.960859 10.2103 0.585787 10.5853C0.210714 10.9604 0 11.4691 0 11.9995C0 12.53 0.210714 13.0387 0.585787 13.4138C0.960859 13.7888 1.46957 13.9995 2 13.9995H19.17L12.59 20.5895C12.3806 20.7688 12.2106 20.9895 12.0905 21.2376C11.9705 21.4857 11.903 21.756 11.8924 22.0314C11.8818 22.3069 11.9282 22.5815 12.0287 22.8382C12.1293 23.0948 12.2818 23.3279 12.4767 23.5228C12.6716 23.7178 12.9047 23.8703 13.1614 23.9708C13.418 24.0714 13.6927 24.1178 13.9681 24.1071C14.2435 24.0965 14.5138 24.029 14.7619 23.909C15.0101 23.789 15.2307 23.6189 15.41 23.4095L25.41 13.4095C25.504 13.319 25.5879 13.2184 25.66 13.1095Z" fill="#00A3FF"/>
</svg>
