<svg width="18" height="8" viewBox="0 0 18 8" fill="none" xmlns="http://www.w3.org/2000/svg">
<path d="M17 5.00409H1C0.734784 5.00409 0.48043 4.89874 0.292893 4.7112C0.105357 4.52366 0 4.26931 0 4.00409C0 3.73887 0.105357 3.48452 0.292893 3.29698C0.48043 3.10945 0.734784 3.00409 1 3.00409H14.59L13.29 1.71409C13.1968 1.62085 13.1228 1.51016 13.0723 1.38834C13.0219 1.26652 12.9959 1.13595 12.9959 1.00409C12.9959 0.73779 13.1017 0.482395 13.29 0.294091C13.4783 0.105788 13.7337 0 14 0C14.1319 0 14.2624 0.0259709 14.3842 0.0764313C14.5061 0.126892 14.6168 0.200853 14.71 0.294091L17.71 3.29409C17.8488 3.43472 17.9428 3.61329 17.9801 3.80728C18.0175 4.00127 17.9966 4.20198 17.92 4.38409C17.845 4.56671 17.7176 4.72304 17.5539 4.83337C17.3901 4.9437 17.1974 5.00311 17 5.00409Z" fill="#E70F47"/>
<path d="M14.0019 8.00409C13.8703 8.00485 13.7398 7.97963 13.618 7.92986C13.4961 7.8801 13.3853 7.80677 13.2919 7.71409C13.1982 7.62113 13.1238 7.51053 13.073 7.38867C13.0222 7.26681 12.9961 7.1361 12.9961 7.00409C12.9961 6.87208 13.0222 6.74137 13.073 6.61951C13.1238 6.49766 13.1982 6.38706 13.2919 6.29409L16.2919 3.29409C16.4802 3.10579 16.7356 3 17.0019 3C17.2682 3 17.5236 3.10579 17.7119 3.29409C17.9002 3.48239 18.006 3.73779 18.006 4.00409C18.006 4.27039 17.9002 4.52579 17.7119 4.71409L14.7119 7.71409C14.6185 7.80677 14.5076 7.8801 14.3858 7.92986C14.264 7.97963 14.1335 8.00485 14.0019 8.00409Z" fill="#E70F47"/>
</svg>
